<?xml version="1.0" standalone="no"?><!DOCTYPE svg PUBLIC "-//W3C//DTD SVG 1.1//EN" "http://www.w3.org/Graphics/SVG/1.1/DTD/svg11.dtd"><svg t="1604238190577" class="icon" viewBox="0 0 1024 1024" version="1.1" xmlns="http://www.w3.org/2000/svg" p-id="16553" xmlns:xlink="http://www.w3.org/1999/xlink" width="16" height="16"><defs><style type="text/css"></style></defs><path d="M146.745 685.254l320 320c24.992 24.993 65.516 24.994 90.508 0l320-320c24.992-24.993 24.992-65.516 0-90.51-24.992-24.996-65.516-24.996-90.508 0l-210.746 210.75v-741.493c0-35.344-28.652-64-64-64-35.345 0-64 28.656-64 64v741.493l-210.746-210.746c-12.496-12.497-28.876-18.748-45.254-18.748-16.377 0-32.757 6.248-45.253 18.744-24.994 24.998-24.994 65.516 0 90.51z" p-id="16554" fill="#ffffff"></path></svg>