<?xml version="1.0" standalone="no"?><!DOCTYPE svg PUBLIC "-//W3C//DTD SVG 1.1//EN" "http://www.w3.org/Graphics/SVG/1.1/DTD/svg11.dtd"><svg class="icon" width="32px" height="32.00px" viewBox="0 0 1024 1024" version="1.1" xmlns="http://www.w3.org/2000/svg"><path fill="#ffffff" d="M964.923077 216.615385c0-122.092308-192.984615-177.230769-374.153846-177.23077s-374.153846 55.138462-374.153846 177.23077v7.876923C47.261538 275.692308 19.692308 384 19.692308 445.046154c0 59.076923 29.538462 120.123077 80.738461 163.446154 45.292308 37.415385 100.430769 59.076923 155.569231 61.046154h15.753846c128-3.938462 254.030769-45.292308 289.476923-116.184616-17.723077-13.784615-29.538462-37.415385-29.538461-61.046154 0-43.323077 35.446154-78.769231 78.76923-78.76923s78.769231 35.446154 78.769231 78.76923c0 33.476923-19.692308 61.046154-49.230769 72.861539-39.384615 110.276923-196.923077 183.138462-384 183.138461v118.153846c0 64.984615 149.661538 118.153846 334.769231 118.153847s334.769231-53.169231 334.769231-118.153847V301.292308c25.6-23.630769 39.384615-51.2 39.384615-84.676923zM590.769231 157.538462c129.969231 0 212.676923 29.538462 244.184615 51.2 5.907692 3.938462 5.907692 11.815385 0 15.753846C803.446154 246.153846 720.738462 275.692308 590.769231 275.692308s-212.676923-29.538462-244.184616-51.2c-5.907692-3.938462-5.907692-11.815385 0-15.753846C378.092308 187.076923 460.8 157.538462 590.769231 157.538462zM151.630769 547.446154C118.153846 519.876923 98.461538 482.461538 98.461538 445.046154c0-88.615385 80.738462-129.969231 151.63077-147.692308l5.907692 5.907692V590.769231c-37.415385-1.969231-74.830769-17.723077-104.369231-43.323077z" /></svg>