<?xml version="1.0" standalone="no"?><!DOCTYPE svg PUBLIC "-//W3C//DTD SVG 1.1//EN" "http://www.w3.org/Graphics/SVG/1.1/DTD/svg11.dtd"><svg class="icon" width="32px" height="32.00px" viewBox="0 0 1024 1024" version="1.1" xmlns="http://www.w3.org/2000/svg"><path fill="#ffffff" d="M649.386667 461.653333l-8.533334 7.68-85.333333-85.333333 57.1904-56.32C602.453333 306.056533 597.333333 282.453333 597.333333 256.853333V256c0-47.223467 16.503467-87.6032 49.493334-121.173333C680.379733 101.8368 720.759467 85.333333 768 85.333333s87.313067 16.503467 120.32 49.493334C921.9072 168.3968 938.666667 208.776533 938.666667 256s-16.759467 87.330133-50.346667 120.32c-33.006933 33.570133-72.823467 50.346667-119.466667 50.346667H768c-25.0368 0-48.059733-4.5568-69.12-13.653334l-49.493333 48.64zM342.186667 768L256 853.333333h-85.333333v-84.48L256.853333 682.666667l85.333334 85.333333z"  /><path fill="#ffffff" d="M594.722133 538.743467l-23.773866-24.507734 115.968-113.408a17.032533 17.032533 0 0 1 18.7392-3.498666c18.807467 8.1408 39.799467 12.270933 62.344533 12.270933 43.1104 0 78.216533-14.7968 108.151467-45.243733C906.8032 334.2336 921.6 298.871467 921.6 256c0-42.9056-14.830933-78.592-45.346133-109.1072C846.301867 116.957867 810.9056 102.4 768 102.4c-42.973867 0-78.677333 14.574933-109.192533 44.5952C628.974933 177.322667 614.4 213.0432 614.4 256c0 23.790933 4.625067 45.1584 13.7216 64.375467a17.066667 17.066667 0 0 1-3.4304 19.473066l-100.625067 99.7376-24.132266-24.132266 43.52-43.52 12.066133 12.066133-11.9808-12.151467 48.878933-48.128A183.5008 183.5008 0 0 1 580.266667 256.853333c0-52.48 18.295467-97.262933 54.408533-133.9904C671.573333 86.562133 716.373333 68.266667 768 68.266667c51.677867 0 96.221867 18.3296 132.386133 54.493866C937.1136 159.470933 955.733333 204.305067 955.733333 256c0 51.780267-18.670933 96.3584-55.4496 132.488533C864.324267 425.079467 820.036267 443.733333 768.853333 443.733333c-23.773867 0-45.704533-3.618133-65.8944-10.786133l-48.571733 48.657067-12.680533-11.4176 11.741866 12.407466-58.7264 56.149334z"  /><path fill="#ffffff" d="M85.333333 972.8a34.133333 34.133333 0 0 1-24.132266-58.2656l85.333333-85.333333a34.133333 34.133333 0 1 1 48.264533 48.264533l-85.333333 85.333333A33.962667 33.962667 0 0 1 85.333333 972.8z m598.186667-426.666667a33.9968 33.9968 0 0 1-24.132267-10.001066l-170.666666-170.666667a34.133333 34.133333 0 1 1 48.264533-48.264533l128 128a4.727467 4.727467 0 0 1 0.4096 0.426666 5.034667 5.034667 0 0 1 0.426667 0.426667l41.813333 41.813333A34.133333 34.133333 0 0 1 683.52 546.133333z"  /><path fill="#ffffff" d="M256 870.4h-85.333333a17.066667 17.066667 0 0 1-17.066667-17.066667v-84.48c0-4.539733 1.792-8.874667 5.000533-12.066133l341.333334-341.333333a17.0496 17.0496 0 1 1 24.132266 24.132266L187.733333 775.918933V836.266667h61.252267l81.186133-80.401067 240.571734-241.425067a17.066667 17.066667 0 0 1 24.1664 24.1152L268.014933 865.467733c-3.208533 3.157333-7.509333 4.932267-12.014933 4.932267z m354.133333-353.28a17.0496 17.0496 0 0 1-12.066133-29.1328l39.901867-39.0144a17.066667 17.066667 0 0 1 22.8352 25.361067l-8.533334 7.68-30.071466 30.1056a17.015467 17.015467 0 0 1-12.066134 5.000533z"  /><path fill="#ffffff" d="M280.9856 658.517333l85.333333 85.333334-48.264533 48.2816-85.333333-85.333334z"  /></svg>