<?xml version="1.0" standalone="no"?><!DOCTYPE svg PUBLIC "-//W3C//DTD SVG 1.1//EN" "http://www.w3.org/Graphics/SVG/1.1/DTD/svg11.dtd"><svg t="1604236189938" class="icon" viewBox="0 0 1024 1024" version="1.1" xmlns="http://www.w3.org/2000/svg" p-id="14993" xmlns:xlink="http://www.w3.org/1999/xlink" width="16" height="16"><defs><style type="text/css"></style></defs><path d="M619 744.283c-90.242 0-180.486 0.002-270.728 0-38.94-0.002-69.261-30.299-69.267-69.361-0.025-179.404-0.024-358.807 0-538.211 0.005-39.254 30.371-69.475 69.662-69.475h540.53c39.53 0 69.726 30.18 69.735 69.866 0.033 132.428 0.012 264.856 0.012 397.284 0 46.821 0.035 93.643-0.012 140.463-0.035 34.377-23.432 62.462-57.208 68.628-3.768 0.688-7.685 0.772-11.533 0.774-90.396 0.04-180.794 0.032-271.191 0.032z m-0.388-55.63c81.436 0 162.873 0.026 244.308-0.052a160.622 160.622 0 0 0 19.395-1.207c11.551-1.42 17.284-6.677 19.026-18.091 1.183-7.748 1.712-15.67 1.716-23.513 0.095-160.091 0.082-320.181 0.03-480.272-0.002-6.474-0.408-12.965-0.976-19.416-1.223-13.892-6.365-19.642-20.01-21.907-5.759-0.957-11.678-1.332-17.524-1.335-163.8-0.068-327.6-0.073-491.399 0.017-6.452 0.004-12.965 0.674-19.34 1.712-10.408 1.694-15.689 6.78-17.207 17.185a176.93 176.93 0 0 0-1.87 25.362c-0.105 159.164-0.088 318.327-0.039 477.49 0.002 6.476 0.372 12.968 0.918 19.422 1.343 15.851 6.925 21.745 22.499 23.606 5.656 0.675 11.391 0.952 17.09 0.956 81.129 0.062 162.255 0.042 243.383 0.042z" p-id="14994" fill="#ffffff"></path><path d="M403.61 959.396c-90.236 0-180.47 0.003-270.706-0.001-38.368-0.002-68.984-30.326-68.996-68.68a862094.6 862094.6 0 0 1-0.002-539.557c0.012-38.405 30.615-68.807 68.915-68.808 22.095-0.001 44.19-0.01 66.286 0.003 16.35 0.008 28.295 11.781 28.267 27.824-0.028 15.756-12.017 27.52-28.01 27.691-18.063 0.195-36.124 0.549-54.187 0.837a17.95 17.95 0 0 0-1.387 0.075c-15.448 1.437-21.715 7.652-23.224 23.527a211.19 211.19 0 0 0-0.954 19.886c-0.05 159.147-0.065 318.295 0.033 477.443 0.005 8.15 0.625 16.361 1.747 24.435 1.608 11.576 7.506 17.046 19.22 18.453 6.118 0.735 12.309 1.19 18.467 1.191 163.165 0.063 326.33 0.06 489.496 0.009 5.543-0.002 11.116-0.366 16.624-1.002 14.738-1.704 20.934-7.753 21.738-22.7 0.87-16.179 0.888-32.408 1.045-48.618 0.168-17.33 12.419-30.112 28.707-29.627 16.605 0.494 28.117 14.554 27.479 31.957-0.697 18.979-0.227 38-0.348 57.002-0.185 29.381-18.375 55.481-45.914 64.811-7.028 2.381-14.777 3.67-22.2 3.691-90.7 0.244-181.398 0.158-272.097 0.158zM584.353 437.935h-6.156c-42.184 0-84.368 0.03-126.552-0.016-15.86-0.018-29.66-11.991-31.569-27.186-2.133-16.982 7.564-31.872 23.644-35.951 3.094-0.785 6.41-0.961 9.624-0.965 41.566-0.062 83.131-0.041 124.697-0.041h6.312v-6.155c0-41.72-0.004-83.44 0.002-125.16 0.003-19.18 13.678-33.358 32.152-33.36 18.44-0.003 32.18 14.214 32.19 33.379 0.019 41.72 0.005 83.44 0.005 125.16v6.137h6.332c42.183 0 84.367-0.05 126.55 0.029 15.798 0.03 29.072 11.55 31.332 26.838 2.371 16.041-6.883 31.182-22.114 35.736-3.345 1-6.97 1.484-10.469 1.492-41.874 0.099-83.749 0.064-125.624 0.064h-6.007v5.848c0 42.03 0.083 84.059-0.048 126.088-0.043 13.774-6.348 24.233-18.997 29.799-12.34 5.43-24.274 3.668-34.58-5.28-7.25-6.295-10.724-14.552-10.724-24.207 0.002-42.184 0-84.366 0-126.55v-5.699z" p-id="14995" fill="#ffffff"></path></svg>