<?xml version="1.0" standalone="no"?><!DOCTYPE svg PUBLIC "-//W3C//DTD SVG 1.1//EN" "http://www.w3.org/Graphics/SVG/1.1/DTD/svg11.dtd"><svg t="1603786550860" class="icon" viewBox="0 0 1024 1024" version="1.1" xmlns="http://www.w3.org/2000/svg" p-id="7401" width="16" height="16" xmlns:xlink="http://www.w3.org/1999/xlink"><defs><style type="text/css"></style></defs><path d="M168.704 433.0496h686.5408c28.7744 0 52.224-24.7808 52.224-55.296 0-30.5152-23.3984-55.1936-52.224-55.1936H293.9392l105.5744-111.7696c20.4288-22.0672 20.4288-56.1152 0-78.1312-18.944-20.3776-50.7904-21.6064-71.2192-2.6624-0.9216 0.8704-1.792 1.7408-2.6624 2.6624L135.7312 333.6192c-2.048 2.1504-3.9424 4.5056-5.632 6.9632-8.8576 10.3424-13.6704 23.552-13.6192 37.1712 0.0512 30.5664 23.3472 55.296 52.224 55.296z m686.5408 157.9008H168.704c-28.8768 0-52.224 24.7808-52.224 55.1936 0 30.5152 23.3472 55.296 52.224 55.296h561.3568l-105.5744 111.6672c-20.4288 22.0672-20.4288 56.1152 0 78.1312 18.7904 20.3776 50.5856 21.7088 70.9632 2.9184 1.024-0.9216 1.9968-1.8944 2.9184-2.9184l189.9008-200.9088c2.048-2.2016 3.9424-4.5568 5.632-7.0144 8.8576-10.3424 13.6704-23.552 13.6192-37.1712-0.0512-30.464-23.4496-55.1936-52.2752-55.1936z" fill="#ffffff" p-id="7402"></path></svg>