<?xml version="1.0" standalone="no"?><!DOCTYPE svg PUBLIC "-//W3C//DTD SVG 1.1//EN" "http://www.w3.org/Graphics/SVG/1.1/DTD/svg11.dtd"><svg class="icon" width="32px" height="32.00px" viewBox="0 0 1024 1024" version="1.1" xmlns="http://www.w3.org/2000/svg"><path fill="#ffffff" d="M846.165333 174.08c21.845333 21.845333 37.888 43.690667 48.128 65.536s15.36 38.229333 15.36 49.152v16.384L651.605333 563.2l-296.96 294.912L110.933333 911.36 162.133333 665.6l296.96-294.912L717.141333 112.64c36.864-8.192 79.872 12.288 129.024 61.44zM340.309333 829.44l24.576-24.576c-1.365333-30.037333-19.114667-62.122667-53.248-96.256-15.018667-15.018667-30.378667-26.965333-46.08-35.84s-27.648-13.312-35.84-13.312l-14.336-2.048-22.528 24.576-18.432 81.92c19.114667 10.922667 34.816 22.528 47.104 34.816 16.384 16.384 28.672 32.768 36.864 49.152l81.92-18.432z" /></svg>