<?xml version="1.0" standalone="no"?><!DOCTYPE svg PUBLIC "-//W3C//DTD SVG 1.1//EN" "http://www.w3.org/Graphics/SVG/1.1/DTD/svg11.dtd"><svg class="icon" width="32px" height="32.00px" viewBox="0 0 1024 1024" version="1.1" xmlns="http://www.w3.org/2000/svg"><path fill="#ffffff" d="M660.977371 139.498057l217.219658 217.219657a73.142857 73.142857 0 0 1 0 103.424L474.784914 863.583086a73.142857 73.142857 0 0 1-103.438628 0l-217.234286-217.234286a73.142857 73.142857 0 0 1 0-103.424L557.553371 139.498057a73.142857 73.142857 0 0 1 103.424 0zM355.825371 423.936l-160.329142 160.329143a14.628571 14.628571 0 0 0 0 20.6848l217.234285 217.234286a14.628571 14.628571 0 0 0 20.670172 0l160.329143-160.329143L355.84 423.936zM175.542857 877.714286l672.914286 0 0 58.514285-672.914286 0 0-58.514285Z" /></svg>