<?xml version="1.0" standalone="no"?><!DOCTYPE svg PUBLIC "-//W3C//DTD SVG 1.1//EN" "http://www.w3.org/Graphics/SVG/1.1/DTD/svg11.dtd"><svg class="icon" width="32px" height="32.00px" viewBox="0 0 1024 1024" version="1.1" xmlns="http://www.w3.org/2000/svg"><path fill="#ffffff" d="M724.6 195.9c-59.4 0-107.5 48.1-107.5 107.5 0 16.7 3.8 32.5 10.6 46.5l-278 278c-14.3-7-30.3-10.9-47.2-10.9-59.4 0-107.5 48.1-107.5 107.5S243.1 832 302.5 832 410 783.9 410 724.5c0-22.4-6.9-43.3-18.6-60.5l272.1-272.1c17.3 12 38.4 19 61.1 19 59.4 0 107.5-48.1 107.5-107.5S784 195.9 724.6 195.9z" /></svg>