<?xml version="1.0" standalone="no"?><!DOCTYPE svg PUBLIC "-//W3C//DTD SVG 1.1//EN" "http://www.w3.org/Graphics/SVG/1.1/DTD/svg11.dtd"><svg class="icon" width="32px" height="32.00px" viewBox="0 0 1024 1024" version="1.1" xmlns="http://www.w3.org/2000/svg"><path fill="#ffffff" d="M243.498667 414.165333a42.666667 42.666667 0 0 0-60.330667-60.330666l-128 128a42.666667 42.666667 0 0 0 0 60.330666l128 128a42.666667 42.666667 0 1 0 60.330667-60.330666L145.664 512l97.834667-97.834667z m366.336-170.666666a42.666667 42.666667 0 0 0 60.330666-60.330667l-128-128a42.666667 42.666667 0 0 0-60.330666 0l-128 128a42.666667 42.666667 0 0 0 60.330666 60.330667L512 145.664l97.834667 97.834667zM414.165333 780.501333a42.666667 42.666667 0 1 0-60.330666 60.330667l128 128a42.666667 42.666667 0 0 0 60.330666 0l128-128a42.666667 42.666667 0 0 0-60.330666-60.330667L512 878.336l-97.834667-97.834667z m366.336-170.666666a42.666667 42.666667 0 0 0 60.330667 60.330666l128-128a42.666667 42.666667 0 0 0 0-60.330666l-128-128a42.666667 42.666667 0 0 0-60.330667 60.330666L878.336 512l-97.834667 97.834667zM85.333333 554.666667h853.333334a42.666667 42.666667 0 0 0 0-85.333334H85.333333a42.666667 42.666667 0 0 0 0 85.333334zM469.333333 85.333333v853.333334a42.666667 42.666667 0 0 0 85.333334 0V85.333333a42.666667 42.666667 0 0 0-85.333334 0z" /></svg>