<?xml version="1.0" standalone="no"?><!DOCTYPE svg PUBLIC "-//W3C//DTD SVG 1.1//EN" "http://www.w3.org/Graphics/SVG/1.1/DTD/svg11.dtd"><svg t="1604236732559" class="icon" viewBox="0 0 1024 1024" version="1.1" xmlns="http://www.w3.org/2000/svg" p-id="15756" xmlns:xlink="http://www.w3.org/1999/xlink" width="16" height="16"><defs><style type="text/css"></style></defs><path d="M61.44 865.28c5.12 5.12 15.36 5.12 20.48 5.12l281.6-66.56L855.04 307.2c20.48-20.48 20.48-51.2 0-71.68l-168.96-168.96c-10.24-10.24-25.6-15.36-35.84-15.36-15.36 0-25.6 5.12-35.84 15.36L117.76 563.2 51.2 839.68c0 10.24 5.12 20.48 10.24 25.6zM650.24 102.4L819.2 271.36l-71.68 71.68-174.08-163.84L650.24 102.4z m-107.52 107.52L716.8 373.76l-358.4 358.4L189.44 563.2l353.28-353.28zM153.6 599.04L322.56 768 102.4 819.2l51.2-220.16zM947.2 921.6h-870.4c-15.36 0-25.6 10.24-25.6 25.6s10.24 25.6 25.6 25.6h870.4c15.36 0 25.6-10.24 25.6-25.6s-10.24-25.6-25.6-25.6z" fill="#ffffff" p-id="15757"></path></svg>