<?xml version="1.0" standalone="no"?><!DOCTYPE svg PUBLIC "-//W3C//DTD SVG 1.1//EN" "http://www.w3.org/Graphics/SVG/1.1/DTD/svg11.dtd"><svg t="1604060469580" class="icon" viewBox="0 0 1024 1024" version="1.1" xmlns="http://www.w3.org/2000/svg" p-id="11522" xmlns:xlink="http://www.w3.org/1999/xlink" width="16" height="16"><defs><style type="text/css"></style></defs><path d="M802.709333 269.525333c20.48 0 37.034667 16.554667 37.034667 37.034667v680.405333c0 20.48-16.597333 37.034667-37.034667 37.034667H200.042667a37.034667 37.034667 0 0 1-37.034667-37.034667V306.56c0-20.48 16.597333-37.034667 37.034667-37.034667zM410.517333 400.768H355.946667v501.12h54.570666V400.768z m236.416 0h-54.528v501.12h54.528V400.768zM600.768 0c20.48 0 37.077333 16.597333 37.077333 37.034667v27.221333h306.346667c20.48 0 37.077333 16.597333 37.077333 37.034667v98.005333c0 20.48-16.597333 37.034667-37.034666 37.034667H79.637333A37.034667 37.034667 0 0 1 42.602667 199.296V101.290667c0-20.48 16.597333-37.034667 37.034666-37.034667h285.312V37.034667c0-20.48 16.597333-37.034667 37.077334-37.034667z" p-id="11523" fill="#ffffff"></path></svg>